<svg width="49" height="48" viewBox="0 0 49 48" fill="none" xmlns="http://www.w3.org/2000/svg">
<g filter="url(#filter0_d_0_245)">
<path d="M24.5 40C35.5457 40 44.5 31.0457 44.5 20C44.5 8.9543 35.5457 0 24.5 0C13.4543 0 4.5 8.9543 4.5 20C4.5 31.0457 13.4543 40 24.5 40Z" fill="#F6FFED"/>
<path d="M25.013 12H23.986V19.7H22.445V20.732H23.986V28.432H25.013V25.355H26.554V24.328H25.013V16.109H26.554V15.082H25.013V12Z" fill="#52C41A"/>
<path d="M31.5 13.219H28.5C27.9477 13.219 27.5 13.6667 27.5 14.219V17.219C27.5 17.7713 27.9477 18.219 28.5 18.219H31.5C32.0523 18.219 32.5 17.7713 32.5 17.219V14.219C32.5 13.6667 32.0523 13.219 31.5 13.219Z" fill="#52C41A"/>
<path d="M31.5 22.219H28.5C27.9477 22.219 27.5 22.6667 27.5 23.219V26.219C27.5 26.7713 27.9477 27.219 28.5 27.219H31.5C32.0523 27.219 32.5 26.7713 32.5 26.219V23.219C32.5 22.6667 32.0523 22.219 31.5 22.219Z" fill="#52C41A"/>
<path d="M20.5 17.219H17.5C16.9477 17.219 16.5 17.6667 16.5 18.219V22.219C16.5 22.7713 16.9477 23.219 17.5 23.219H20.5C21.0523 23.219 21.5 22.7713 21.5 22.219V18.219C21.5 17.6667 21.0523 17.219 20.5 17.219Z" fill="#52C41A"/>
</g>
<defs>
<filter id="filter0_d_0_245" x="0.5" y="0" width="48" height="48" filterUnits="userSpaceOnUse" color-interpolation-filters="sRGB">
<feFlood flood-opacity="0" result="BackgroundImageFix"/>
<feColorMatrix in="SourceAlpha" type="matrix" values="0 0 0 0 0 0 0 0 0 0 0 0 0 0 0 0 0 0 127 0" result="hardAlpha"/>
<feOffset dy="4"/>
<feGaussianBlur stdDeviation="2"/>
<feComposite in2="hardAlpha" operator="out"/>
<feColorMatrix type="matrix" values="0 0 0 0 0 0 0 0 0 0 0 0 0 0 0 0 0 0 0.25 0"/>
<feBlend mode="normal" in2="BackgroundImageFix" result="effect1_dropShadow_0_245"/>
<feBlend mode="normal" in="SourceGraphic" in2="effect1_dropShadow_0_245" result="shape"/>
</filter>
</defs>
</svg>
